#!OML:ASF H:\ManfredObstacles\Project 1\Capture day 1\Session 1\Male.ASF
:FULLY-SPECIFIED
:DEGREES
401
root 11.5908 16.4582 -4.45079 -164.997 45.708 -178.196
lowerback -11.9783 -3.09825 -0.553473
upperback 0.739615 -4.16608 1.91318
thorax 7.69636 -2.07965 1.56871
lowerneck 0.31826 -5.25642 -5.71632
upperneck -10.9573 -5.58107 14.5492
head -2.64192 -2.92895 5.47724
rclavicle -2.71838e-014 -2.42517e-014
rhumerus -32.5631 -17.9189 -77.8848
rradius 29.3426
rwrist 29.9689
rhand -0.825216 -5.38843
rfingers 7.12502
rthumb 24.7997 -33.8004
lclavicle -2.71838e-014 -2.42517e-014
lhumerus -25.5918 14.2595 85.7499
lradius 17.7267
lwrist -35.3552
lhand -6.77449 8.69237
lfingers 7.12502
lthumb 19.0877 37.7757
rfemur -32.83 -7.60791 25.0642
rtibia 27.1576
rfoot -8.41372 16.8934
rtoes 31.9141
lfemur 7.89884 -7.72433 -14.588
ltibia 3.18055e-015
lfoot 7.20189 -12.0976
ltoes 14.8278
402
root 11.6246 16.4622 -4.46276 -165.093 45.6705 -178.339
lowerback -11.8169 -3.08897 -0.575673
upperback 0.791901 -4.15373 1.9262
thorax 7.66285 -2.07636 1.60388
lowerneck 0.210188 -5.20338 -5.75661
upperneck -11.127 -5.49305 14.4484
head -2.68498 -2.8779 5.4541
rclavicle 1.12885e-013 1.98785e-016
rhumerus -32.483 -17.3532 -78.121
rradius 29.4665
rwrist 29.4837
rhand -0.888345 -5.66395
rfingers 7.12502
rthumb 24.7392 -34.0842
lclavicle 1.12885e-013 1.98785e-016
lhumerus -25.0183 12.9754 86.5813
lradius 18.3339
lwrist -34.34
lhand -7.19956 8.33373
lfingers 7.12502
lthumb 18.6789 37.4569
rfemur -32.7562 -7.87961 25.0795
rtibia 27.2411
rfoot -8.46932 17.1625
rtoes 32.1235
lfemur 8.00028 -7.79039 -14.6282
ltibia -9.54166e-015
lfoot 7.36184 -12.0099
ltoes 15.4756
403
root 11.6559 16.4653 -4.46656 -165.174 45.5394 -178.523
lowerback -11.6149 -3.10553 -0.671918
upperback 0.77143 -4.16245 1.93154
thorax 7.53379 -2.08551 1.67246
lowerneck 0.0836705 -5.18105 -5.6759
upperneck -11.1505 -5.47549 14.2138
head -2.68421 -2.86054 5.36483
rclavicle -1.18202e-013 3.1408e-014
rhumerus -32.5207 -17.0391 -78.271
rradius 29.5629
rwrist 29.3782
rhand -0.882234 -5.77415
rfingers 7.12502
rthumb 24.7451 -34.1936
lclavicle -1.18202e-013 3.1408e-014
lhumerus -24.5761 11.7856 87.3087
lradius 18.8075
lwrist -33.266
lhand -7.67701 8.3174
lfingers 7.12502
lthumb 18.2196 37.4841
rfemur -32.7345 -7.81385 24.9781
rtibia 27.3076
rfoot -8.7056 16.9628
rtoes 32.0123
lfemur 7.98344 -7.94928 -14.6501
ltibia 1.90833e-014
lfoot 7.5449 -11.9197
ltoes 15.6718
404
root 11.683 16.4675 -4.47696 -165.131 45.5744 -178.504
lowerback -11.4953 -2.99599 -0.52007
upperback 0.782304 -4.03515 1.89885
thorax 7.45866 -2.0172 1.58182
lowerneck 0.0448617 -5.16807 -5.68098
upperneck -11.245 -5.44841 14.1593
head -2.71002 -2.84407 5.35021
rclavicle 4.1546e-014 1.39149e-015
rhumerus -32.3924 -17.5017 -78.1908
rradius 29.2078
rwrist 29.9621
rhand -0.987364 -5.32834
rfingers 7.12502
rthumb 24.6443 -33.7616
lclavicle 4.1546e-014 1.39149e-015
lhumerus -24.1116 10.8793 87.8682
lradius 19.0937
lwrist -32.4624
lhand -7.93193 8.30761
lfingers 7.12502
lthumb 17.9743 37.497
rfemur -32.6726 -7.69028 25.0025
rtibia 27.342
rfoot -8.8546 16.8893
rtoes 31.9853
lfemur 8.04565 -7.91384 -14.5968
ltibia 2.8625e-014
lfoot 7.6057 -11.8941
ltoes 15.3606
405
root 11.7129 16.4708 -4.4943 -165.016 45.5827 -178.538
lowerback -11.6062 -2.93551 -0.38186
upperback 0.766556 -3.97027 1.86213
thorax 7.48987 -1.97845 1.4725
lowerneck 0.32541 -5.09007 -5.92476
upperneck -11.6592 -5.27756 14.4385
head -2.87764 -2.77303 5.49708
rclavicle 2.77802e-014 3.39922e-014
rhumerus -32.3573 -17.7866 -78.1726
rradius 28.9589
rwrist 30.2992
rhand -1.08026 -5.09721
rfingers 7.12502
rthumb 24.5553 -33.5426
lclavicle 2.77802e-014 3.39922e-014
lhumerus -23.6841 10.3269 88.2436
lradius 19.3035
lwrist -31.7681
lhand -7.84322 8.23688
lfingers 7.12502
lthumb 18.0597 37.4184
rfemur -32.7026 -7.83053 25.0554
rtibia 27.338
rfoot -8.90365 17.0716
rtoes 32.1643
lfemur 8.01286 -7.90217 -14.5836
ltibia 0
lfoot 7.64011 -11.8507
ltoes 15.3168
406
root 11.7371 16.4729 -4.50555 -164.742 45.5792 -178.583
lowerback -11.801 -2.94133 -0.290046
upperback 0.681562 -3.98615 1.8403
thorax 7.50204 -1.98002 1.38797
lowerneck 0.475701 -4.98175 -6.02708
upperneck -11.9229 -5.08736 14.5741
head -2.99208 -2.68662 5.56762
rclavicle -6.25426e-014 -4.53229e-014
rhumerus -32.4106 -17.6837 -78.3451
rradius 28.9854
rwrist 30.3153
rhand -0.930987 -5.1543
rfingers 7.12502
rthumb 24.6984 -33.5802
lclavicle -6.25426e-014 -4.53229e-014
lhumerus -23.3726 9.84225 88.5132
lradius 19.5859
lwrist -30.9767
lhand -7.70294 8.2635
lfingers 7.12502
lthumb 18.1947 37.4325
rfemur -32.9315 -7.88963 25.1164
rtibia 27.3129
rfoot -8.94321 17.1661
rtoes 32.3279
lfemur 7.75244 -7.88792 -14.5328
ltibia -2.8625e-014
lfoot 7.86179 -11.7363
ltoes 15.8886
407
root 11.7584 16.4741 -4.51113 -164.53 45.6083 -178.577
lowerback -11.8852 -2.93602 -0.221355
upperback 0.659955 -3.98786 1.83986
thorax 7.52189 -1.97731 1.34525
lowerneck 0.214774 -4.93178 -5.86283
upperneck -11.8435 -5.0398 14.2943
head -2.94517 -2.64835 5.44279
rclavicle -1.15394e-013 3.53837e-014
rhumerus -32.2711 -17.7175 -78.4592
rradius 28.8089
rwrist 30.5127
rhand -0.808349 -5.18523
rfingers 7.12502
rthumb 24.8159 -33.595
lclavicle -1.15394e-013 3.53837e-014
lhumerus -23.0182 9.37339 88.7832
lradius 19.8207
lwrist -30.3412
lhand -7.62986 8.32521
lfingers 7.12502
lthumb 18.265 37.4877
rfemur -33.0838 -7.94078 25.2376
rtibia 27.2893
rfoot -9.04893 17.2283
rtoes 31.8529
lfemur 7.57838 -7.84282 -14.4451
ltibia 2.8625e-014
lfoot 8.10551 -11.6753
ltoes 16.3976
408
root 11.7785 16.4771 -4.51648 -164.526 45.6863 -178.607
lowerback -11.7751 -2.9091 -0.247736
upperback 0.657214 -3.95064 1.88466
thorax 7.46042 -1.96157 1.41958
lowerneck 0.06781 -4.85196 -5.78932
upperneck -11.7708 -4.97477 13.9178
head -2.92189 -2.60177 5.30702
rclavicle 3.82412e-014 9.93923e-015
rhumerus -32.1766 -17.7133 -78.4057
rradius 28.592
rwrist 30.7235
rhand -0.885173 -5.24541
rfingers 7.12502
rthumb 24.7423 -33.6653
lclavicle 3.82412e-014 9.93923e-015
lhumerus -22.743 8.95723 89.1333
lradius 19.973
lwrist -29.8927
lhand -7.58638 8.38971
lfingers 7.12502
lthumb 18.3068 37.5483
rfemur -33.0526 -7.9661 25.2958
rtibia 27.251
rfoot -9.17877 17.2513
rtoes 31.0938
lfemur 7.61559 -7.77489 -14.433
ltibia 3.18055e-014
lfoot 8.23385 -11.7328
ltoes 15.6967
409
root 11.7976 16.4803 -4.52649 -164.533 45.8333 -178.611
lowerback -11.6594 -2.89682 -0.256727
upperback 0.626891 -3.93496 1.94384
thorax 7.36679 -1.95549 1.49627
lowerneck 0.125322 -4.74813 -5.91679
upperneck -11.7793 -4.86261 13.7537
head -2.94757 -2.54041 5.27883
rclavicle -5.68276e-014 1.59028e-015
rhumerus -32.1741 -17.5372 -78.3814
rradius 28.4529
rwrist 30.8865
rhand -0.895557 -5.21911
rfingers 7.12502
rthumb 24.7323 -33.6403
lclavicle -5.68276e-014 1.59028e-015
lhumerus -22.6834 8.55917 89.4261
lradius 20.1765
lwrist -29.5382
lhand -7.55315 8.45557
lfingers 7.12502
lthumb 18.3388 37.6111
rfemur -32.9522 -7.8157 25.2761
rtibia 27.2169
rfoot -9.27559 17.219
rtoes 30.8685
lfemur 7.71666 -7.63853 -14.4423
ltibia -4.13472e-014
lfoot 8.32429 -11.9035
ltoes 13.6981
410
root 11.8162 16.4814 -4.53887 -164.38 45.9834 -178.472
lowerback -11.6966 -2.86893 -0.073039
upperback 0.638132 -3.92397 1.95613
thorax 7.38786 -1.94273 1.40635
lowerneck 0.199128 -4.72193 -6.14668
upperneck -11.9519 -4.80595 13.8801
head -3.00502 -2.51182 5.36315
rclavicle -1.05654e-013 4.25399e-014
rhumerus -31.9899 -17.6735 -78.4415
rradius 28.0847
rwrist 31.2947
rhand -0.856793 -5.18794
rfingers 7.12502
rthumb 24.7695 -33.6041
lclavicle -1.05654e-013 4.25399e-014
lhumerus -22.6001 8.14756 89.5575
lradius 20.3689
lwrist -29.5008
lhand -7.49312 8.53599
lfingers 7.12502
lthumb 18.3965 37.6861
rfemur -32.9216 -7.68069 25.3705
rtibia 27.2186
rfoot -9.29615 17.2863
rtoes 31.0112
lfemur 7.75813 -7.46768 -14.3408
ltibia -1.59028e-014
lfoot 8.39007 -12.0943
ltoes 12.2795
411
root 11.8319 16.4819 -4.5477 -164.225 46.1162 -178.338
lowerback -11.6689 -2.81954 0.112239
upperback 0.612438 -3.88089 1.94124
thorax 7.32951 -1.91388 1.29662
lowerneck 0.499834 -4.65517 -6.38058
upperneck -12.3578 -4.65635 14.1453
head -3.17451 -2.45121 5.50385
rclavicle 1.14425e-013 -4.92986e-014
rhumerus -31.9265 -17.8707 -78.4758
rradius 27.7911
rwrist 31.6404
rhand -0.843389 -5.34905
rfingers 7.12502
rthumb 24.7823 -33.7634
lclavicle 1.14425e-013 -4.92986e-014
lhumerus -22.5113 7.65086 89.653
lradius 20.4016
lwrist -29.4865
lhand -7.55142 8.57504
lfingers 7.12502
lthumb 18.3404 37.7304
rfemur -32.9713 -7.71176 25.5357
rtibia 27.2463
rfoot -9.24616 17.528
rtoes 31.0634
lfemur 7.77416 -7.31334 -14.2369
ltibia 3.49861e-014
lfoot 8.46618 -12.2056
ltoes 11.8399
412
root 11.8467 16.4838 -4.5551 -164.184 46.2318 -178.341
lowerback -11.5746 -2.82204 0.123715
upperback 0.527161 -3.88229 1.95983
thorax 7.18544 -1.91421 1.3161
lowerneck 0.524841 -4.57152 -6.32474
upperneck -12.3053 -4.57259 13.9444
head -3.18096 -2.407 5.43022
rclavicle 2.2413e-014 1.05356e-014
rhumerus -32.1001 -17.5554 -78.5233
rradius 27.8348
rwrist 31.4739
rhand -0.833687 -5.60012
rfingers 7.12502
rthumb 24.7916 -34.0132
lclavicle 2.2413e-014 1.05356e-014
lhumerus -22.5972 7.26625 89.7906
lradius 20.4226
lwrist -29.2858
lhand -7.67721 8.54643
lfingers 7.12502
lthumb 18.2194 37.7132
rfemur -33.0228 -7.89729 25.6469
rtibia 27.2753
rfoot -9.19458 17.8246
rtoes 30.962
lfemur 7.80613 -7.2019 -14.2379
ltibia 5.08889e-014
lfoot 8.5647 -12.2495
ltoes 11.4749
